<?xml version="1.0" standalone="no"?>
<!DOCTYPE svg PUBLIC "-//W3C//DTD SVG 20010904//EN"
 "http://www.w3.org/TR/2001/REC-SVG-20010904/DTD/svg10.dtd">
<svg version="1.0" xmlns="http://www.w3.org/2000/svg"
 width="260.000000pt" height="260.000000pt" viewBox="0 0 260.000000 260.000000"
 preserveAspectRatio="xMidYMid meet">
<metadata>
Created by potrace 1.11, written by Peter Selinger 2001-2013
</metadata>
<g transform="translate(0.000000,260.000000) scale(0.100000,-0.100000)"
fill="#000000" stroke="none">
<path d="M490 2585 c-175 -39 -332 -159 -409 -316 -73 -149 -72 -134 -69
-1008 3 -771 3 -776 25 -841 68 -198 235 -355 432 -406 50 -12 174 -14 857
-12 l799 3 62 23 c176 66 303 198 376 389 22 58 22 62 25 844 3 877 4 869 -63
1004 -70 140 -193 247 -350 302 l-80 28 -770 2 c-632 1 -782 -1 -835 -12z
m1760 -448 c63 -94 91 -197 97 -357 8 -195 -22 -339 -105 -505 -102 -206 -279
-365 -477 -429 -65 -20 -706 -158 -712 -153 -8 9 98 86 127 92 57 13 100 78
176 271 47 120 104 218 166 285 18 20 107 104 198 186 240 218 330 344 409
578 50 145 47 144 121 32z m-1971 -201 c9 -8 176 -113 371 -234 390 -243 447
-288 499 -393 63 -129 65 -244 5 -367 -41 -84 -192 -230 -334 -324 -128 -84
-182 -133 -212 -193 -11 -22 -22 -41 -23 -43 -1 -2 -60 22 -130 53 -69 30
-134 55 -142 55 -13 0 -13 2 -2 17 27 32 178 93 370 149 107 30 204 62 216 69
50 33 54 148 6 206 -14 17 -59 53 -100 80 -206 139 -438 359 -492 467 -50 98
-61 159 -61 324 0 81 3 148 7 148 3 0 14 -6 22 -14z"/>
</g>
</svg>
